<?xml version="1.0" encoding="UTF-8" standalone="no"?>
<!DOCTYPE svg PUBLIC "-//W3C//DTD SVG 1.1//EN"
 "http://www.w3.org/Graphics/SVG/1.1/DTD/svg11.dtd">
<!-- Generated by graphviz version 2.40.1 (0)
 -->
<!-- Title: %3 Pages: 1 -->
<svg width="3567pt" height="404pt"
 viewBox="0.00 0.00 3566.77 404.00" xmlns="http://www.w3.org/2000/svg" xmlns:xlink="http://www.w3.org/1999/xlink">
<g id="graph0" class="graph" transform="scale(1 1) rotate(0) translate(4 400)">
<title>%3</title>
<polygon fill="#ffffff" stroke="transparent" points="-4,4 -4,-400 3562.7745,-400 3562.7745,4 -4,4"/>
<!-- [root] aws_instance.application (expand) -->
<g id="node1" class="node">
<title>[root] aws_instance.application (expand)</title>
<polygon fill="none" stroke="#000000" points="1761,-252 1564,-252 1564,-216 1761,-216 1761,-252"/>
<text text-anchor="middle" x="1662.5" y="-230.3" font-family="Times,serif" font-size="14.00" fill="#000000">aws_instance.application</text>
</g>
<!-- [root] aws_key_pair.application (expand) -->
<g id="node4" class="node">
<title>[root] aws_key_pair.application (expand)</title>
<polygon fill="none" stroke="#000000" points="2018.5,-180 1822.5,-180 1822.5,-144 2018.5,-144 2018.5,-180"/>
<text text-anchor="middle" x="1920.5" y="-158.3" font-family="Times,serif" font-size="14.00" fill="#000000">aws_key_pair.application</text>
</g>
<!-- [root] aws_instance.application (expand)&#45;&gt;[root] aws_key_pair.application (expand) -->
<g id="edge1" class="edge">
<title>[root] aws_instance.application (expand)&#45;&gt;[root] aws_key_pair.application (expand)</title>
<path fill="none" stroke="#000000" d="M1727.2713,-215.9243C1763.3081,-205.8675 1808.3232,-193.3052 1845.8367,-182.8363"/>
<polygon fill="#000000" stroke="#000000" points="1847.0109,-186.1424 1855.7021,-180.0831 1845.1293,-179.4 1847.0109,-186.1424"/>
</g>
<!-- [root] aws_security_group.application (expand) -->
<g id="node14" class="node">
<title>[root] aws_security_group.application (expand)</title>
<polygon fill="none" stroke="#000000" points="1568.5,-180 1324.5,-180 1324.5,-144 1568.5,-144 1568.5,-180"/>
<text text-anchor="middle" x="1446.5" y="-158.3" font-family="Times,serif" font-size="14.00" fill="#000000">aws_security_group.application</text>
</g>
<!-- [root] aws_instance.application (expand)&#45;&gt;[root] aws_security_group.application (expand) -->
<g id="edge2" class="edge">
<title>[root] aws_instance.application (expand)&#45;&gt;[root] aws_security_group.application (expand)</title>
<path fill="none" stroke="#000000" d="M1608.2729,-215.9243C1578.616,-206.0387 1541.6963,-193.7321 1510.6179,-183.3726"/>
<polygon fill="#000000" stroke="#000000" points="1511.3431,-179.9251 1500.7494,-180.0831 1509.1294,-186.5659 1511.3431,-179.9251"/>
</g>
<!-- [root] aws_subnet.public2 (expand) -->
<g id="node17" class="node">
<title>[root] aws_subnet.public2 (expand)</title>
<polygon fill="none" stroke="#000000" points="1130.5,-180 972.5,-180 972.5,-144 1130.5,-144 1130.5,-180"/>
<text text-anchor="middle" x="1051.5" y="-158.3" font-family="Times,serif" font-size="14.00" fill="#000000">aws_subnet.public2</text>
</g>
<!-- [root] aws_instance.application (expand)&#45;&gt;[root] aws_subnet.public2 (expand) -->
<g id="edge3" class="edge">
<title>[root] aws_instance.application (expand)&#45;&gt;[root] aws_subnet.public2 (expand)</title>
<path fill="none" stroke="#000000" d="M1563.725,-217.0867C1560.9555,-216.7079 1558.2096,-216.3446 1555.5,-216 1374.6389,-192.9994 1324.8961,-206.1567 1140.6017,-180.0625"/>
<polygon fill="#000000" stroke="#000000" points="1140.9743,-176.5802 1130.5784,-178.6237 1139.9796,-183.5092 1140.9743,-176.5802"/>
</g>
<!-- [root] aws_instance.bastion (expand) -->
<g id="node2" class="node">
<title>[root] aws_instance.bastion (expand)</title>
<polygon fill="none" stroke="#000000" points="1949.5,-252 1779.5,-252 1779.5,-216 1949.5,-216 1949.5,-252"/>
<text text-anchor="middle" x="1864.5" y="-230.3" font-family="Times,serif" font-size="14.00" fill="#000000">aws_instance.bastion</text>
</g>
<!-- [root] aws_key_pair.bastion (expand) -->
<g id="node5" class="node">
<title>[root] aws_key_pair.bastion (expand)</title>
<polygon fill="none" stroke="#000000" points="2206,-180 2037,-180 2037,-144 2206,-144 2206,-180"/>
<text text-anchor="middle" x="2121.5" y="-158.3" font-family="Times,serif" font-size="14.00" fill="#000000">aws_key_pair.bastion</text>
</g>
<!-- [root] aws_instance.bastion (expand)&#45;&gt;[root] aws_key_pair.bastion (expand) -->
<g id="edge4" class="edge">
<title>[root] aws_instance.bastion (expand)&#45;&gt;[root] aws_key_pair.bastion (expand)</title>
<path fill="none" stroke="#000000" d="M1929.0202,-215.9243C1964.9174,-205.8675 2009.758,-193.3052 2047.1261,-182.8363"/>
<polygon fill="#000000" stroke="#000000" points="2048.2682,-186.1511 2056.9532,-180.0831 2046.3798,-179.4107 2048.2682,-186.1511"/>
</g>
<!-- [root] aws_security_group.bastion (expand) -->
<g id="node15" class="node">
<title>[root] aws_security_group.bastion (expand)</title>
<polygon fill="none" stroke="#000000" points="1804,-180 1587,-180 1587,-144 1804,-144 1804,-180"/>
<text text-anchor="middle" x="1695.5" y="-158.3" font-family="Times,serif" font-size="14.00" fill="#000000">aws_security_group.bastion</text>
</g>
<!-- [root] aws_instance.bastion (expand)&#45;&gt;[root] aws_security_group.bastion (expand) -->
<g id="edge5" class="edge">
<title>[root] aws_instance.bastion (expand)&#45;&gt;[root] aws_security_group.bastion (expand)</title>
<path fill="none" stroke="#000000" d="M1821.8542,-215.8314C1799.151,-206.159 1771.0549,-194.1891 1747.1258,-183.9944"/>
<polygon fill="#000000" stroke="#000000" points="1748.4109,-180.7376 1737.8392,-180.038 1745.6672,-187.1775 1748.4109,-180.7376"/>
</g>
<!-- [root] aws_subnet.public1 (expand) -->
<g id="node16" class="node">
<title>[root] aws_subnet.public1 (expand)</title>
<polygon fill="none" stroke="#000000" points="1306.5,-180 1148.5,-180 1148.5,-144 1306.5,-144 1306.5,-180"/>
<text text-anchor="middle" x="1227.5" y="-158.3" font-family="Times,serif" font-size="14.00" fill="#000000">aws_subnet.public1</text>
</g>
<!-- [root] aws_instance.bastion (expand)&#45;&gt;[root] aws_subnet.public1 (expand) -->
<g id="edge6" class="edge">
<title>[root] aws_instance.bastion (expand)&#45;&gt;[root] aws_subnet.public1 (expand)</title>
<path fill="none" stroke="#000000" d="M1779.2613,-217.253C1776.3087,-216.8084 1773.3817,-216.3887 1770.5,-216 1572.7057,-189.3201 1518.1092,-207.7629 1316.5947,-180.0506"/>
<polygon fill="#000000" stroke="#000000" points="1316.9624,-176.568 1306.5745,-178.6515 1315.9944,-183.5008 1316.9624,-176.568"/>
</g>
<!-- [root] aws_internet_gateway.iti (expand) -->
<g id="node3" class="node">
<title>[root] aws_internet_gateway.iti (expand)</title>
<polygon fill="none" stroke="#000000" points="402,-180 207,-180 207,-144 402,-144 402,-180"/>
<text text-anchor="middle" x="304.5" y="-158.3" font-family="Times,serif" font-size="14.00" fill="#000000">aws_internet_gateway.iti</text>
</g>
<!-- [root] aws_vpc.iti (expand) -->
<g id="node20" class="node">
<title>[root] aws_vpc.iti (expand)</title>
<polygon fill="none" stroke="#000000" points="1006,-108 909,-108 909,-72 1006,-72 1006,-108"/>
<text text-anchor="middle" x="957.5" y="-86.3" font-family="Times,serif" font-size="14.00" fill="#000000">aws_vpc.iti</text>
</g>
<!-- [root] aws_internet_gateway.iti (expand)&#45;&gt;[root] aws_vpc.iti (expand) -->
<g id="edge7" class="edge">
<title>[root] aws_internet_gateway.iti (expand)&#45;&gt;[root] aws_vpc.iti (expand)</title>
<path fill="none" stroke="#000000" d="M402.1342,-145.2939C405.2909,-144.8438 408.4191,-144.411 411.5,-144 588.1816,-120.4298 798.3014,-102.4647 898.5715,-94.5044"/>
<polygon fill="#000000" stroke="#000000" points="899.1044,-97.9733 908.7979,-93.697 898.5534,-90.995 899.1044,-97.9733"/>
</g>
<!-- [root] provider[&quot;registry.terraform.io/hashicorp/aws&quot;] -->
<g id="node23" class="node">
<title>[root] provider[&quot;registry.terraform.io/hashicorp/aws&quot;]</title>
<polygon fill="none" stroke="#000000" points="1920.5,-36 1593.0599,-18 1920.5,0 2247.9401,-18 1920.5,-36"/>
<text text-anchor="middle" x="1920.5" y="-14.3" font-family="Times,serif" font-size="14.00" fill="#000000">provider[&quot;registry.terraform.io/hashicorp/aws&quot;]</text>
</g>
<!-- [root] aws_key_pair.application (expand)&#45;&gt;[root] provider[&quot;registry.terraform.io/hashicorp/aws&quot;] -->
<g id="edge8" class="edge">
<title>[root] aws_key_pair.application (expand)&#45;&gt;[root] provider[&quot;registry.terraform.io/hashicorp/aws&quot;]</title>
<path fill="none" stroke="#000000" d="M1920.5,-143.7623C1920.5,-119.201 1920.5,-75.2474 1920.5,-46.3541"/>
<polygon fill="#000000" stroke="#000000" points="1924.0001,-46.0896 1920.5,-36.0896 1917.0001,-46.0897 1924.0001,-46.0896"/>
</g>
<!-- [root] tls_private_key.application (expand) -->
<g id="node26" class="node">
<title>[root] tls_private_key.application (expand)</title>
<polygon fill="none" stroke="#000000" points="2384,-108 2175,-108 2175,-72 2384,-72 2384,-108"/>
<text text-anchor="middle" x="2279.5" y="-86.3" font-family="Times,serif" font-size="14.00" fill="#000000">tls_private_key.application</text>
</g>
<!-- [root] aws_key_pair.application (expand)&#45;&gt;[root] tls_private_key.application (expand) -->
<g id="edge9" class="edge">
<title>[root] aws_key_pair.application (expand)&#45;&gt;[root] tls_private_key.application (expand)</title>
<path fill="none" stroke="#000000" d="M2010.6275,-143.9243C2062.0429,-133.6126 2126.5927,-120.6666 2179.5573,-110.0442"/>
<polygon fill="#000000" stroke="#000000" points="2180.5304,-113.4188 2189.6469,-108.0207 2179.1538,-106.5555 2180.5304,-113.4188"/>
</g>
<!-- [root] aws_key_pair.bastion (expand)&#45;&gt;[root] provider[&quot;registry.terraform.io/hashicorp/aws&quot;] -->
<g id="edge10" class="edge">
<title>[root] aws_key_pair.bastion (expand)&#45;&gt;[root] provider[&quot;registry.terraform.io/hashicorp/aws&quot;]</title>
<path fill="none" stroke="#000000" d="M2096.0432,-143.7623C2059.4325,-117.5337 1991.9534,-69.1905 1952.1698,-40.6888"/>
<polygon fill="#000000" stroke="#000000" points="1954.0503,-37.7306 1943.8828,-34.7519 1949.9736,-43.421 1954.0503,-37.7306"/>
</g>
<!-- [root] tls_private_key.bastion (expand) -->
<g id="node27" class="node">
<title>[root] tls_private_key.bastion (expand)</title>
<polygon fill="none" stroke="#000000" points="2953.5,-108 2771.5,-108 2771.5,-72 2953.5,-72 2953.5,-108"/>
<text text-anchor="middle" x="2862.5" y="-86.3" font-family="Times,serif" font-size="14.00" fill="#000000">tls_private_key.bastion</text>
</g>
<!-- [root] aws_key_pair.bastion (expand)&#45;&gt;[root] tls_private_key.bastion (expand) -->
<g id="edge11" class="edge">
<title>[root] aws_key_pair.bastion (expand)&#45;&gt;[root] tls_private_key.bastion (expand)</title>
<path fill="none" stroke="#000000" d="M2206.2812,-149.8382C2221.965,-147.7592 2238.2157,-145.7188 2253.5,-144 2431.887,-123.9397 2640.3643,-106.817 2761.3218,-97.5055"/>
<polygon fill="#000000" stroke="#000000" points="2761.61,-100.9938 2771.3129,-96.7388 2761.0744,-94.0143 2761.61,-100.9938"/>
</g>
<!-- [root] aws_route.private (expand) -->
<g id="node6" class="node">
<title>[root] aws_route.private (expand)</title>
<polygon fill="none" stroke="#000000" points="200.5,-252 54.5,-252 54.5,-216 200.5,-216 200.5,-252"/>
<text text-anchor="middle" x="127.5" y="-230.3" font-family="Times,serif" font-size="14.00" fill="#000000">aws_route.private</text>
</g>
<!-- [root] aws_route.private (expand)&#45;&gt;[root] aws_internet_gateway.iti (expand) -->
<g id="edge12" class="edge">
<title>[root] aws_route.private (expand)&#45;&gt;[root] aws_internet_gateway.iti (expand)</title>
<path fill="none" stroke="#000000" d="M172.1646,-215.8314C196.0477,-206.1162 225.629,-194.0831 250.7628,-183.8592"/>
<polygon fill="#000000" stroke="#000000" points="252.2125,-187.0481 260.1566,-180.038 249.5748,-180.564 252.2125,-187.0481"/>
</g>
<!-- [root] aws_route_table.private (expand) -->
<g id="node8" class="node">
<title>[root] aws_route_table.private (expand)</title>
<polygon fill="none" stroke="#000000" points="189,-180 0,-180 0,-144 189,-144 189,-180"/>
<text text-anchor="middle" x="94.5" y="-158.3" font-family="Times,serif" font-size="14.00" fill="#000000">aws_route_table.private</text>
</g>
<!-- [root] aws_route.private (expand)&#45;&gt;[root] aws_route_table.private (expand) -->
<g id="edge13" class="edge">
<title>[root] aws_route.private (expand)&#45;&gt;[root] aws_route_table.private (expand)</title>
<path fill="none" stroke="#000000" d="M119.1727,-215.8314C115.527,-207.8771 111.1691,-198.369 107.1373,-189.5723"/>
<polygon fill="#000000" stroke="#000000" points="110.2877,-188.0456 102.9394,-180.4133 103.9243,-190.9622 110.2877,-188.0456"/>
</g>
<!-- [root] aws_route.public (expand) -->
<g id="node7" class="node">
<title>[root] aws_route.public (expand)</title>
<polygon fill="none" stroke="#000000" points="358,-252 219,-252 219,-216 358,-216 358,-252"/>
<text text-anchor="middle" x="288.5" y="-230.3" font-family="Times,serif" font-size="14.00" fill="#000000">aws_route.public</text>
</g>
<!-- [root] aws_route.public (expand)&#45;&gt;[root] aws_internet_gateway.iti (expand) -->
<g id="edge14" class="edge">
<title>[root] aws_route.public (expand)&#45;&gt;[root] aws_internet_gateway.iti (expand)</title>
<path fill="none" stroke="#000000" d="M292.5375,-215.8314C294.2487,-208.131 296.2835,-198.9743 298.1852,-190.4166"/>
<polygon fill="#000000" stroke="#000000" points="301.6554,-190.9344 300.4082,-180.4133 294.8221,-189.4159 301.6554,-190.9344"/>
</g>
<!-- [root] aws_route_table.public (expand) -->
<g id="node9" class="node">
<title>[root] aws_route_table.public (expand)</title>
<polygon fill="none" stroke="#000000" points="954.5,-180 772.5,-180 772.5,-144 954.5,-144 954.5,-180"/>
<text text-anchor="middle" x="863.5" y="-158.3" font-family="Times,serif" font-size="14.00" fill="#000000">aws_route_table.public</text>
</g>
<!-- [root] aws_route.public (expand)&#45;&gt;[root] aws_route_table.public (expand) -->
<g id="edge15" class="edge">
<title>[root] aws_route.public (expand)&#45;&gt;[root] aws_route_table.public (expand)</title>
<path fill="none" stroke="#000000" d="M358.1486,-217.4318C360.9635,-216.9193 363.7554,-216.439 366.5,-216 538.1983,-188.5352 586.1569,-203.1482 762.146,-180.1098"/>
<polygon fill="#000000" stroke="#000000" points="762.8159,-183.5516 772.2665,-178.7623 761.892,-176.6129 762.8159,-183.5516"/>
</g>
<!-- [root] aws_route_table.private (expand)&#45;&gt;[root] aws_vpc.iti (expand) -->
<g id="edge16" class="edge">
<title>[root] aws_route_table.private (expand)&#45;&gt;[root] aws_vpc.iti (expand)</title>
<path fill="none" stroke="#000000" d="M189.0184,-145.0964C191.875,-144.7092 194.7072,-144.3423 197.5,-144 457.6975,-112.1049 770.496,-97.2306 898.5222,-92.1386"/>
<polygon fill="#000000" stroke="#000000" points="899.0212,-95.6218 908.8762,-91.7322 898.7466,-88.6272 899.0212,-95.6218"/>
</g>
<!-- [root] aws_route_table.public (expand)&#45;&gt;[root] aws_vpc.iti (expand) -->
<g id="edge17" class="edge">
<title>[root] aws_route_table.public (expand)&#45;&gt;[root] aws_vpc.iti (expand)</title>
<path fill="none" stroke="#000000" d="M887.2202,-143.8314C898.9094,-134.8779 913.1688,-123.9558 925.7809,-114.2955"/>
<polygon fill="#000000" stroke="#000000" points="927.9769,-117.0222 933.7874,-108.1628 923.7203,-111.4651 927.9769,-117.0222"/>
</g>
<!-- [root] aws_route_table_association.public1 (expand) -->
<g id="node10" class="node">
<title>[root] aws_route_table_association.public1 (expand)</title>
<polygon fill="none" stroke="#000000" points="1546,-252 1267,-252 1267,-216 1546,-216 1546,-252"/>
<text text-anchor="middle" x="1406.5" y="-230.3" font-family="Times,serif" font-size="14.00" fill="#000000">aws_route_table_association.public1</text>
</g>
<!-- [root] aws_route_table_association.public1 (expand)&#45;&gt;[root] aws_route_table.public (expand) -->
<g id="edge18" class="edge">
<title>[root] aws_route_table_association.public1 (expand)&#45;&gt;[root] aws_route_table.public (expand)</title>
<path fill="none" stroke="#000000" d="M1266.8731,-217.075C1153.2866,-203.2937 1006.2458,-185.4192 964.7846,-180.0113"/>
<polygon fill="#000000" stroke="#000000" points="965.1309,-176.5263 954.7502,-178.6455 964.1868,-183.4623 965.1309,-176.5263"/>
</g>
<!-- [root] aws_route_table_association.public1 (expand)&#45;&gt;[root] aws_subnet.public1 (expand) -->
<g id="edge19" class="edge">
<title>[root] aws_route_table_association.public1 (expand)&#45;&gt;[root] aws_subnet.public1 (expand)</title>
<path fill="none" stroke="#000000" d="M1361.3307,-215.8314C1337.1777,-206.1162 1307.2622,-194.0831 1281.8444,-183.8592"/>
<polygon fill="#000000" stroke="#000000" points="1282.9282,-180.5227 1272.3444,-180.038 1280.3159,-187.017 1282.9282,-180.5227"/>
</g>
<!-- [root] aws_route_table_association.public2 (expand) -->
<g id="node11" class="node">
<title>[root] aws_route_table_association.public2 (expand)</title>
<polygon fill="none" stroke="#000000" points="1249,-252 970,-252 970,-216 1249,-216 1249,-252"/>
<text text-anchor="middle" x="1109.5" y="-230.3" font-family="Times,serif" font-size="14.00" fill="#000000">aws_route_table_association.public2</text>
</g>
<!-- [root] aws_route_table_association.public2 (expand)&#45;&gt;[root] aws_route_table.public (expand) -->
<g id="edge20" class="edge">
<title>[root] aws_route_table_association.public2 (expand)&#45;&gt;[root] aws_route_table.public (expand)</title>
<path fill="none" stroke="#000000" d="M1047.7413,-215.9243C1013.5268,-205.9103 970.8244,-193.412 935.1476,-182.97"/>
<polygon fill="#000000" stroke="#000000" points="935.8646,-179.5331 925.2841,-180.0831 933.8983,-186.2513 935.8646,-179.5331"/>
</g>
<!-- [root] aws_route_table_association.public2 (expand)&#45;&gt;[root] aws_subnet.public2 (expand) -->
<g id="edge21" class="edge">
<title>[root] aws_route_table_association.public2 (expand)&#45;&gt;[root] aws_subnet.public2 (expand)</title>
<path fill="none" stroke="#000000" d="M1094.8642,-215.8314C1088.1839,-207.5386 1080.1432,-197.557 1072.8096,-188.4533"/>
<polygon fill="#000000" stroke="#000000" points="1075.3319,-186.0052 1066.3329,-180.4133 1069.8806,-190.3965 1075.3319,-186.0052"/>
</g>
<!-- [root] aws_route_table_association.public3 (expand) -->
<g id="node12" class="node">
<title>[root] aws_route_table_association.public3 (expand)</title>
<polygon fill="none" stroke="#000000" points="952,-252 673,-252 673,-216 952,-216 952,-252"/>
<text text-anchor="middle" x="812.5" y="-230.3" font-family="Times,serif" font-size="14.00" fill="#000000">aws_route_table_association.public3</text>
</g>
<!-- [root] aws_route_table_association.public3 (expand)&#45;&gt;[root] aws_route_table.public (expand) -->
<g id="edge22" class="edge">
<title>[root] aws_route_table_association.public3 (expand)&#45;&gt;[root] aws_route_table.public (expand)</title>
<path fill="none" stroke="#000000" d="M825.3695,-215.8314C831.1835,-207.6232 838.1696,-197.7606 844.5646,-188.7323"/>
<polygon fill="#000000" stroke="#000000" points="847.5331,-190.5966 850.4573,-180.4133 841.821,-186.5505 847.5331,-190.5966"/>
</g>
<!-- [root] aws_subnet.public3 (expand) -->
<g id="node18" class="node">
<title>[root] aws_subnet.public3 (expand)</title>
<polygon fill="none" stroke="#000000" points="754.5,-180 596.5,-180 596.5,-144 754.5,-144 754.5,-180"/>
<text text-anchor="middle" x="675.5" y="-158.3" font-family="Times,serif" font-size="14.00" fill="#000000">aws_subnet.public3</text>
</g>
<!-- [root] aws_route_table_association.public3 (expand)&#45;&gt;[root] aws_subnet.public3 (expand) -->
<g id="edge23" class="edge">
<title>[root] aws_route_table_association.public3 (expand)&#45;&gt;[root] aws_subnet.public3 (expand)</title>
<path fill="none" stroke="#000000" d="M777.9291,-215.8314C760.0815,-206.4516 738.1226,-194.9112 719.12,-184.9244"/>
<polygon fill="#000000" stroke="#000000" points="720.5401,-181.7168 710.0598,-180.1628 717.2836,-187.9132 720.5401,-181.7168"/>
</g>
<!-- [root] aws_route_table_association.public4 (expand) -->
<g id="node13" class="node">
<title>[root] aws_route_table_association.public4 (expand)</title>
<polygon fill="none" stroke="#000000" points="655,-252 376,-252 376,-216 655,-216 655,-252"/>
<text text-anchor="middle" x="515.5" y="-230.3" font-family="Times,serif" font-size="14.00" fill="#000000">aws_route_table_association.public4</text>
</g>
<!-- [root] aws_route_table_association.public4 (expand)&#45;&gt;[root] aws_route_table.public (expand) -->
<g id="edge24" class="edge">
<title>[root] aws_route_table_association.public4 (expand)&#45;&gt;[root] aws_route_table.public (expand)</title>
<path fill="none" stroke="#000000" d="M602.8659,-215.9243C652.6023,-205.634 715.0178,-192.7205 766.2992,-182.1105"/>
<polygon fill="#000000" stroke="#000000" points="767.3166,-185.4742 776.4,-180.0207 765.8983,-178.6194 767.3166,-185.4742"/>
</g>
<!-- [root] aws_subnet.public4 (expand) -->
<g id="node19" class="node">
<title>[root] aws_subnet.public4 (expand)</title>
<polygon fill="none" stroke="#000000" points="578.5,-180 420.5,-180 420.5,-144 578.5,-144 578.5,-180"/>
<text text-anchor="middle" x="499.5" y="-158.3" font-family="Times,serif" font-size="14.00" fill="#000000">aws_subnet.public4</text>
</g>
<!-- [root] aws_route_table_association.public4 (expand)&#45;&gt;[root] aws_subnet.public4 (expand) -->
<g id="edge25" class="edge">
<title>[root] aws_route_table_association.public4 (expand)&#45;&gt;[root] aws_subnet.public4 (expand)</title>
<path fill="none" stroke="#000000" d="M511.4625,-215.8314C509.7513,-208.131 507.7165,-198.9743 505.8148,-190.4166"/>
<polygon fill="#000000" stroke="#000000" points="509.1779,-189.4159 503.5918,-180.4133 502.3446,-190.9344 509.1779,-189.4159"/>
</g>
<!-- [root] aws_security_group.application (expand)&#45;&gt;[root] aws_vpc.iti (expand) -->
<g id="edge26" class="edge">
<title>[root] aws_security_group.application (expand)&#45;&gt;[root] aws_vpc.iti (expand)</title>
<path fill="none" stroke="#000000" d="M1324.3661,-144.0171C1226.1558,-129.5567 1092.4557,-109.8708 1016.5495,-98.6944"/>
<polygon fill="#000000" stroke="#000000" points="1016.6353,-95.1694 1006.2321,-97.1753 1015.6156,-102.0947 1016.6353,-95.1694"/>
</g>
<!-- [root] aws_security_group.bastion (expand)&#45;&gt;[root] aws_vpc.iti (expand) -->
<g id="edge27" class="edge">
<title>[root] aws_security_group.bastion (expand)&#45;&gt;[root] aws_vpc.iti (expand)</title>
<path fill="none" stroke="#000000" d="M1586.8739,-145.1604C1583.7163,-144.7574 1580.5864,-144.3694 1577.5,-144 1371.9821,-119.4009 1126.8604,-101.3787 1016.4946,-93.8652"/>
<polygon fill="#000000" stroke="#000000" points="1016.4541,-90.3546 1006.2405,-93.1711 1015.9813,-97.3386 1016.4541,-90.3546"/>
</g>
<!-- [root] aws_subnet.public1 (expand)&#45;&gt;[root] aws_vpc.iti (expand) -->
<g id="edge28" class="edge">
<title>[root] aws_subnet.public1 (expand)&#45;&gt;[root] aws_vpc.iti (expand)</title>
<path fill="none" stroke="#000000" d="M1159.7161,-143.9243C1115.4637,-132.1237 1058.2745,-116.8732 1016.0118,-105.6031"/>
<polygon fill="#000000" stroke="#000000" points="1016.7137,-102.1681 1006.1495,-102.9732 1014.91,-108.9317 1016.7137,-102.1681"/>
</g>
<!-- [root] aws_subnet.public2 (expand)&#45;&gt;[root] aws_vpc.iti (expand) -->
<g id="edge29" class="edge">
<title>[root] aws_subnet.public2 (expand)&#45;&gt;[root] aws_vpc.iti (expand)</title>
<path fill="none" stroke="#000000" d="M1027.7798,-143.8314C1016.0906,-134.8779 1001.8312,-123.9558 989.2191,-114.2955"/>
<polygon fill="#000000" stroke="#000000" points="991.2797,-111.4651 981.2126,-108.1628 987.0231,-117.0222 991.2797,-111.4651"/>
</g>
<!-- [root] aws_subnet.public3 (expand)&#45;&gt;[root] aws_vpc.iti (expand) -->
<g id="edge30" class="edge">
<title>[root] aws_subnet.public3 (expand)&#45;&gt;[root] aws_vpc.iti (expand)</title>
<path fill="none" stroke="#000000" d="M746.2965,-143.9243C793.4691,-131.8802 854.7166,-116.2426 899.0992,-104.9109"/>
<polygon fill="#000000" stroke="#000000" points="900.0431,-108.2822 908.8664,-102.4171 898.3113,-101.4998 900.0431,-108.2822"/>
</g>
<!-- [root] aws_subnet.public4 (expand)&#45;&gt;[root] aws_vpc.iti (expand) -->
<g id="edge31" class="edge">
<title>[root] aws_subnet.public4 (expand)&#45;&gt;[root] aws_vpc.iti (expand)</title>
<path fill="none" stroke="#000000" d="M578.6137,-145.5967C581.6115,-145.0453 584.5815,-144.511 587.5,-144 697.123,-124.805 825.854,-107.1018 898.9389,-97.5006"/>
<polygon fill="#000000" stroke="#000000" points="899.4132,-100.9684 908.8744,-96.2003 898.5048,-94.0276 899.4132,-100.9684"/>
</g>
<!-- [root] aws_vpc.iti (expand)&#45;&gt;[root] provider[&quot;registry.terraform.io/hashicorp/aws&quot;] -->
<g id="edge32" class="edge">
<title>[root] aws_vpc.iti (expand)&#45;&gt;[root] provider[&quot;registry.terraform.io/hashicorp/aws&quot;]</title>
<path fill="none" stroke="#000000" d="M1006.2468,-86.3554C1145.6675,-75.9314 1550.2314,-45.6836 1771.5514,-29.1363"/>
<polygon fill="#000000" stroke="#000000" points="1771.9134,-32.6191 1781.6246,-28.3832 1771.3914,-25.6386 1771.9134,-32.6191"/>
</g>
<!-- [root] local_file.application (expand) -->
<g id="node21" class="node">
<title>[root] local_file.application (expand)</title>
<polygon fill="none" stroke="#000000" points="2316.5,-252 2152.5,-252 2152.5,-216 2316.5,-216 2316.5,-252"/>
<text text-anchor="middle" x="2234.5" y="-230.3" font-family="Times,serif" font-size="14.00" fill="#000000">local_file.application</text>
</g>
<!-- [root] provider[&quot;registry.terraform.io/hashicorp/local&quot;] -->
<g id="node24" class="node">
<title>[root] provider[&quot;registry.terraform.io/hashicorp/local&quot;]</title>
<polygon fill="none" stroke="#000000" points="2595.5,-180 2262.53,-162 2595.5,-144 2928.47,-162 2595.5,-180"/>
<text text-anchor="middle" x="2595.5" y="-158.3" font-family="Times,serif" font-size="14.00" fill="#000000">provider[&quot;registry.terraform.io/hashicorp/local&quot;]</text>
</g>
<!-- [root] local_file.application (expand)&#45;&gt;[root] provider[&quot;registry.terraform.io/hashicorp/local&quot;] -->
<g id="edge33" class="edge">
<title>[root] local_file.application (expand)&#45;&gt;[root] provider[&quot;registry.terraform.io/hashicorp/local&quot;]</title>
<path fill="none" stroke="#000000" d="M2316.8682,-217.572C2376.0799,-205.7625 2455.5336,-189.9157 2514.4434,-178.1664"/>
<polygon fill="#000000" stroke="#000000" points="2515.331,-181.5584 2524.4532,-176.17 2513.9618,-174.6936 2515.331,-181.5584"/>
</g>
<!-- [root] local_file.application (expand)&#45;&gt;[root] tls_private_key.application (expand) -->
<g id="edge34" class="edge">
<title>[root] local_file.application (expand)&#45;&gt;[root] tls_private_key.application (expand)</title>
<path fill="none" stroke="#000000" d="M2237.0352,-215.7268C2239.8976,-197.2955 2245.2593,-168.1857 2253.5,-144 2256.5722,-134.9835 2260.772,-125.5101 2264.9001,-117.0596"/>
<polygon fill="#000000" stroke="#000000" points="2268.0758,-118.5354 2269.4665,-108.0323 2261.8295,-115.3758 2268.0758,-118.5354"/>
</g>
<!-- [root] local_file.bastion (expand) -->
<g id="node22" class="node">
<title>[root] local_file.bastion (expand)</title>
<polygon fill="none" stroke="#000000" points="2535,-252 2398,-252 2398,-216 2535,-216 2535,-252"/>
<text text-anchor="middle" x="2466.5" y="-230.3" font-family="Times,serif" font-size="14.00" fill="#000000">local_file.bastion</text>
</g>
<!-- [root] local_file.bastion (expand)&#45;&gt;[root] provider[&quot;registry.terraform.io/hashicorp/local&quot;] -->
<g id="edge35" class="edge">
<title>[root] local_file.bastion (expand)&#45;&gt;[root] provider[&quot;registry.terraform.io/hashicorp/local&quot;]</title>
<path fill="none" stroke="#000000" d="M2499.0521,-215.8314C2516.7556,-205.9504 2538.7549,-193.6717 2557.2707,-183.3373"/>
<polygon fill="#000000" stroke="#000000" points="2559.0201,-186.3692 2566.0463,-178.4393 2555.6085,-180.2568 2559.0201,-186.3692"/>
</g>
<!-- [root] local_file.bastion (expand)&#45;&gt;[root] tls_private_key.bastion (expand) -->
<g id="edge36" class="edge">
<title>[root] local_file.bastion (expand)&#45;&gt;[root] tls_private_key.bastion (expand)</title>
<path fill="none" stroke="#000000" d="M2535.1806,-225.3553C2559.5855,-222.3304 2587.2608,-218.9536 2612.5,-216 2684.6714,-207.5542 2889.0297,-234.1358 2937.5,-180 2948.1728,-168.0798 2944.7944,-158.2405 2937.5,-144 2931.263,-131.8238 2920.8605,-121.7682 2909.7593,-113.7713"/>
<polygon fill="#000000" stroke="#000000" points="2911.4527,-110.6937 2901.1914,-108.0563 2907.5684,-116.5171 2911.4527,-110.6937"/>
</g>
<!-- [root] provider[&quot;registry.terraform.io/hashicorp/tls&quot;] -->
<g id="node25" class="node">
<title>[root] provider[&quot;registry.terraform.io/hashicorp/tls&quot;]</title>
<polygon fill="none" stroke="#000000" points="2769.5,-36 2451.4432,-18 2769.5,0 3087.5568,-18 2769.5,-36"/>
<text text-anchor="middle" x="2769.5" y="-14.3" font-family="Times,serif" font-size="14.00" fill="#000000">provider[&quot;registry.terraform.io/hashicorp/tls&quot;]</text>
</g>
<!-- [root] tls_private_key.application (expand)&#45;&gt;[root] provider[&quot;registry.terraform.io/hashicorp/tls&quot;] -->
<g id="edge63" class="edge">
<title>[root] tls_private_key.application (expand)&#45;&gt;[root] provider[&quot;registry.terraform.io/hashicorp/tls&quot;]</title>
<path fill="none" stroke="#000000" d="M2384.0163,-74.6425C2468.8246,-62.1809 2587.5536,-44.735 2670.7684,-32.5075"/>
<polygon fill="#000000" stroke="#000000" points="2671.3509,-35.9596 2680.7359,-31.0429 2670.3332,-29.0339 2671.3509,-35.9596"/>
</g>
<!-- [root] tls_private_key.bastion (expand)&#45;&gt;[root] provider[&quot;registry.terraform.io/hashicorp/tls&quot;] -->
<g id="edge64" class="edge">
<title>[root] tls_private_key.bastion (expand)&#45;&gt;[root] provider[&quot;registry.terraform.io/hashicorp/tls&quot;]</title>
<path fill="none" stroke="#000000" d="M2839.0322,-71.8314C2827.0259,-62.5362 2812.279,-51.1192 2799.4602,-41.195"/>
<polygon fill="#000000" stroke="#000000" points="2801.413,-38.2805 2791.3631,-34.9263 2797.1278,-43.8156 2801.413,-38.2805"/>
</g>
<!-- [root] meta.count&#45;boundary (EachMode fixup) -->
<g id="node28" class="node">
<title>[root] meta.count&#45;boundary (EachMode fixup)</title>
<ellipse fill="none" stroke="#000000" cx="1525.5" cy="-306" rx="224.4604" ry="18"/>
<text text-anchor="middle" x="1525.5" y="-302.3" font-family="Times,serif" font-size="14.00" fill="#000000">[root] meta.count&#45;boundary (EachMode fixup)</text>
</g>
<!-- [root] meta.count&#45;boundary (EachMode fixup)&#45;&gt;[root] aws_instance.application (expand) -->
<g id="edge37" class="edge">
<title>[root] meta.count&#45;boundary (EachMode fixup)&#45;&gt;[root] aws_instance.application (expand)</title>
<path fill="none" stroke="#000000" d="M1559.3652,-288.2022C1577.4239,-278.7115 1599.8408,-266.9304 1619.1579,-256.7783"/>
<polygon fill="#000000" stroke="#000000" points="1620.8491,-259.8435 1628.0728,-252.0931 1617.5926,-253.6471 1620.8491,-259.8435"/>
</g>
<!-- [root] meta.count&#45;boundary (EachMode fixup)&#45;&gt;[root] aws_instance.bastion (expand) -->
<g id="edge38" class="edge">
<title>[root] meta.count&#45;boundary (EachMode fixup)&#45;&gt;[root] aws_instance.bastion (expand)</title>
<path fill="none" stroke="#000000" d="M1604.9804,-289.1192C1654.2524,-278.6544 1717.8211,-265.153 1769.7113,-254.1321"/>
<polygon fill="#000000" stroke="#000000" points="1770.537,-257.5349 1779.5916,-252.0336 1769.0826,-250.6876 1770.537,-257.5349"/>
</g>
<!-- [root] meta.count&#45;boundary (EachMode fixup)&#45;&gt;[root] aws_route.private (expand) -->
<g id="edge39" class="edge">
<title>[root] meta.count&#45;boundary (EachMode fixup)&#45;&gt;[root] aws_route.private (expand)</title>
<path fill="none" stroke="#000000" d="M1369.8378,-293.0226C1344.0189,-291.1436 1317.515,-289.3813 1292.5,-288 814.9206,-261.6279 689.0779,-311.1934 210.6322,-252.0013"/>
<polygon fill="#000000" stroke="#000000" points="211.0586,-248.5274 200.7024,-250.7635 210.1926,-255.4737 211.0586,-248.5274"/>
</g>
<!-- [root] meta.count&#45;boundary (EachMode fixup)&#45;&gt;[root] aws_route.public (expand) -->
<g id="edge40" class="edge">
<title>[root] meta.count&#45;boundary (EachMode fixup)&#45;&gt;[root] aws_route.public (expand)</title>
<path fill="none" stroke="#000000" d="M1368.8899,-293.0752C1343.3693,-291.2068 1317.2073,-289.4341 1292.5,-288 884.6383,-264.3262 776.4757,-305.8676 368.1316,-252.0786"/>
<polygon fill="#000000" stroke="#000000" points="368.4959,-248.5964 358.122,-250.7491 367.5741,-255.5354 368.4959,-248.5964"/>
</g>
<!-- [root] meta.count&#45;boundary (EachMode fixup)&#45;&gt;[root] aws_route_table_association.public1 (expand) -->
<g id="edge41" class="edge">
<title>[root] meta.count&#45;boundary (EachMode fixup)&#45;&gt;[root] aws_route_table_association.public1 (expand)</title>
<path fill="none" stroke="#000000" d="M1495.7782,-288.0171C1480.4437,-278.7391 1461.5538,-267.3099 1445.1046,-257.3574"/>
<polygon fill="#000000" stroke="#000000" points="1446.623,-254.1853 1436.2553,-252.0032 1442.9993,-260.1744 1446.623,-254.1853"/>
</g>
<!-- [root] meta.count&#45;boundary (EachMode fixup)&#45;&gt;[root] aws_route_table_association.public2 (expand) -->
<g id="edge42" class="edge">
<title>[root] meta.count&#45;boundary (EachMode fixup)&#45;&gt;[root] aws_route_table_association.public2 (expand)</title>
<path fill="none" stroke="#000000" d="M1431.1032,-289.6621C1369.5387,-279.0067 1288.8206,-265.0363 1223.6531,-253.7573"/>
<polygon fill="#000000" stroke="#000000" points="1224.1951,-250.2991 1213.7446,-252.0423 1223.0012,-257.1966 1224.1951,-250.2991"/>
</g>
<!-- [root] meta.count&#45;boundary (EachMode fixup)&#45;&gt;[root] aws_route_table_association.public3 (expand) -->
<g id="edge43" class="edge">
<title>[root] meta.count&#45;boundary (EachMode fixup)&#45;&gt;[root] aws_route_table_association.public3 (expand)</title>
<path fill="none" stroke="#000000" d="M1374.6116,-292.6423C1263.3011,-282.536 1107.8732,-267.8988 962.3348,-252.1869"/>
<polygon fill="#000000" stroke="#000000" points="962.6378,-248.6994 952.319,-251.1022 961.884,-255.6587 962.6378,-248.6994"/>
</g>
<!-- [root] meta.count&#45;boundary (EachMode fixup)&#45;&gt;[root] aws_route_table_association.public4 (expand) -->
<g id="edge44" class="edge">
<title>[root] meta.count&#45;boundary (EachMode fixup)&#45;&gt;[root] aws_route_table_association.public4 (expand)</title>
<path fill="none" stroke="#000000" d="M1366.3533,-293.2804C1341.6342,-291.4276 1316.3835,-289.6058 1292.5,-288 1016.3918,-269.4354 944.0884,-276.7391 665.3098,-252.1333"/>
<polygon fill="#000000" stroke="#000000" points="665.5755,-248.6432 655.305,-251.2444 664.956,-255.6157 665.5755,-248.6432"/>
</g>
<!-- [root] meta.count&#45;boundary (EachMode fixup)&#45;&gt;[root] local_file.application (expand) -->
<g id="edge45" class="edge">
<title>[root] meta.count&#45;boundary (EachMode fixup)&#45;&gt;[root] local_file.application (expand)</title>
<path fill="none" stroke="#000000" d="M1664.7296,-291.861C1805.9409,-277.5208 2020.4954,-255.7325 2142.0274,-243.3907"/>
<polygon fill="#000000" stroke="#000000" points="2142.4577,-246.8651 2152.0528,-242.3726 2141.7504,-239.9009 2142.4577,-246.8651"/>
</g>
<!-- [root] meta.count&#45;boundary (EachMode fixup)&#45;&gt;[root] local_file.bastion (expand) -->
<g id="edge46" class="edge">
<title>[root] meta.count&#45;boundary (EachMode fixup)&#45;&gt;[root] local_file.bastion (expand)</title>
<path fill="none" stroke="#000000" d="M1715.2832,-296.3809C1877.5442,-287.3934 2117.1584,-272.3117 2325.5,-252 2345.671,-250.0335 2367.4111,-247.4762 2387.6375,-244.9097"/>
<polygon fill="#000000" stroke="#000000" points="2388.2725,-248.3569 2397.7448,-243.6108 2387.3803,-241.414 2388.2725,-248.3569"/>
</g>
<!-- [root] provider[&quot;registry.terraform.io/hashicorp/aws&quot;] (close) -->
<g id="node29" class="node">
<title>[root] provider[&quot;registry.terraform.io/hashicorp/aws&quot;] (close)</title>
<ellipse fill="none" stroke="#000000" cx="989.5" cy="-306" rx="293.548" ry="18"/>
<text text-anchor="middle" x="989.5" y="-302.3" font-family="Times,serif" font-size="14.00" fill="#000000">[root] provider[&quot;registry.terraform.io/hashicorp/aws&quot;] (close)</text>
</g>
<!-- [root] provider[&quot;registry.terraform.io/hashicorp/aws&quot;] (close)&#45;&gt;[root] aws_instance.application (expand) -->
<g id="edge47" class="edge">
<title>[root] provider[&quot;registry.terraform.io/hashicorp/aws&quot;] (close)&#45;&gt;[root] aws_instance.application (expand)</title>
<path fill="none" stroke="#000000" d="M1172.4483,-291.8858C1280.7647,-282.7201 1420.8751,-269.4628 1553.7588,-252.1861"/>
<polygon fill="#000000" stroke="#000000" points="1554.26,-255.6505 1563.7209,-250.8815 1553.351,-248.7097 1554.26,-255.6505"/>
</g>
<!-- [root] provider[&quot;registry.terraform.io/hashicorp/aws&quot;] (close)&#45;&gt;[root] aws_instance.bastion (expand) -->
<g id="edge48" class="edge">
<title>[root] provider[&quot;registry.terraform.io/hashicorp/aws&quot;] (close)&#45;&gt;[root] aws_instance.bastion (expand)</title>
<path fill="none" stroke="#000000" d="M1194.8043,-293.0866C1397.465,-280.1428 1687.4704,-261.0253 1769.1537,-251.9905"/>
<polygon fill="#000000" stroke="#000000" points="1769.7512,-255.4441 1779.2662,-250.7843 1768.922,-248.4934 1769.7512,-255.4441"/>
</g>
<!-- [root] provider[&quot;registry.terraform.io/hashicorp/aws&quot;] (close)&#45;&gt;[root] aws_route.private (expand) -->
<g id="edge49" class="edge">
<title>[root] provider[&quot;registry.terraform.io/hashicorp/aws&quot;] (close)&#45;&gt;[root] aws_route.private (expand)</title>
<path fill="none" stroke="#000000" d="M729.3786,-297.5627C580.0692,-290.3815 389.0577,-277.2403 210.8154,-252.0717"/>
<polygon fill="#000000" stroke="#000000" points="211.1143,-248.579 200.7202,-250.6313 210.1255,-255.5089 211.1143,-248.579"/>
</g>
<!-- [root] provider[&quot;registry.terraform.io/hashicorp/aws&quot;] (close)&#45;&gt;[root] aws_route.public (expand) -->
<g id="edge50" class="edge">
<title>[root] provider[&quot;registry.terraform.io/hashicorp/aws&quot;] (close)&#45;&gt;[root] aws_route.public (expand)</title>
<path fill="none" stroke="#000000" d="M766.1988,-294.2609C649.9783,-286.2825 505.5147,-273.4541 368.4241,-252.1941"/>
<polygon fill="#000000" stroke="#000000" points="368.568,-248.674 358.1464,-250.5821 367.4832,-255.5895 368.568,-248.674"/>
</g>
<!-- [root] provider[&quot;registry.terraform.io/hashicorp/aws&quot;] (close)&#45;&gt;[root] aws_route_table_association.public1 (expand) -->
<g id="edge51" class="edge">
<title>[root] provider[&quot;registry.terraform.io/hashicorp/aws&quot;] (close)&#45;&gt;[root] aws_route_table_association.public1 (expand)</title>
<path fill="none" stroke="#000000" d="M1087.7951,-289.0282C1148.9351,-278.4716 1227.817,-264.8517 1291.8063,-253.8032"/>
<polygon fill="#000000" stroke="#000000" points="1292.6847,-257.2034 1301.9434,-252.0529 1291.4936,-250.3055 1292.6847,-257.2034"/>
</g>
<!-- [root] provider[&quot;registry.terraform.io/hashicorp/aws&quot;] (close)&#45;&gt;[root] aws_route_table_association.public2 (expand) -->
<g id="edge52" class="edge">
<title>[root] provider[&quot;registry.terraform.io/hashicorp/aws&quot;] (close)&#45;&gt;[root] aws_route_table_association.public2 (expand)</title>
<path fill="none" stroke="#000000" d="M1019.4715,-288.0171C1034.9349,-278.7391 1053.9835,-267.3099 1070.571,-257.3574"/>
<polygon fill="#000000" stroke="#000000" points="1072.7205,-260.1494 1079.4947,-252.0032 1069.119,-254.147 1072.7205,-260.1494"/>
</g>
<!-- [root] provider[&quot;registry.terraform.io/hashicorp/aws&quot;] (close)&#45;&gt;[root] aws_route_table_association.public3 (expand) -->
<g id="edge53" class="edge">
<title>[root] provider[&quot;registry.terraform.io/hashicorp/aws&quot;] (close)&#45;&gt;[root] aws_route_table_association.public3 (expand)</title>
<path fill="none" stroke="#000000" d="M945.292,-288.0171C921.322,-278.2666 891.5114,-266.1402 866.2117,-255.8488"/>
<polygon fill="#000000" stroke="#000000" points="867.3396,-252.5292 856.7579,-252.0032 864.702,-259.0133 867.3396,-252.5292"/>
</g>
<!-- [root] provider[&quot;registry.terraform.io/hashicorp/aws&quot;] (close)&#45;&gt;[root] aws_route_table_association.public4 (expand) -->
<g id="edge54" class="edge">
<title>[root] provider[&quot;registry.terraform.io/hashicorp/aws&quot;] (close)&#45;&gt;[root] aws_route_table_association.public4 (expand)</title>
<path fill="none" stroke="#000000" d="M879.5635,-289.3008C809.4314,-278.6478 718.2236,-264.7935 644.645,-253.617"/>
<polygon fill="#000000" stroke="#000000" points="644.796,-250.0998 634.3838,-252.0583 643.7447,-257.0204 644.796,-250.0998"/>
</g>
<!-- [root] provider[&quot;registry.terraform.io/hashicorp/local&quot;] (close) -->
<g id="node30" class="node">
<title>[root] provider[&quot;registry.terraform.io/hashicorp/local&quot;] (close)</title>
<ellipse fill="none" stroke="#000000" cx="2234.5" cy="-306" rx="297.8473" ry="18"/>
<text text-anchor="middle" x="2234.5" y="-302.3" font-family="Times,serif" font-size="14.00" fill="#000000">[root] provider[&quot;registry.terraform.io/hashicorp/local&quot;] (close)</text>
</g>
<!-- [root] provider[&quot;registry.terraform.io/hashicorp/local&quot;] (close)&#45;&gt;[root] local_file.application (expand) -->
<g id="edge55" class="edge">
<title>[root] provider[&quot;registry.terraform.io/hashicorp/local&quot;] (close)&#45;&gt;[root] local_file.application (expand)</title>
<path fill="none" stroke="#000000" d="M2234.5,-287.8314C2234.5,-280.131 2234.5,-270.9743 2234.5,-262.4166"/>
<polygon fill="#000000" stroke="#000000" points="2238.0001,-262.4132 2234.5,-252.4133 2231.0001,-262.4133 2238.0001,-262.4132"/>
</g>
<!-- [root] provider[&quot;registry.terraform.io/hashicorp/local&quot;] (close)&#45;&gt;[root] local_file.bastion (expand) -->
<g id="edge56" class="edge">
<title>[root] provider[&quot;registry.terraform.io/hashicorp/local&quot;] (close)&#45;&gt;[root] local_file.bastion (expand)</title>
<path fill="none" stroke="#000000" d="M2291.5507,-288.2946C2323.9104,-278.2519 2364.6059,-265.6223 2398.6025,-255.0716"/>
<polygon fill="#000000" stroke="#000000" points="2399.9467,-258.3192 2408.4599,-252.0124 2397.8719,-251.6338 2399.9467,-258.3192"/>
</g>
<!-- [root] provider[&quot;registry.terraform.io/hashicorp/tls&quot;] (close) -->
<g id="node31" class="node">
<title>[root] provider[&quot;registry.terraform.io/hashicorp/tls&quot;] (close)</title>
<ellipse fill="none" stroke="#000000" cx="3271.5" cy="-162" rx="287.0492" ry="18"/>
<text text-anchor="middle" x="3271.5" y="-158.3" font-family="Times,serif" font-size="14.00" fill="#000000">[root] provider[&quot;registry.terraform.io/hashicorp/tls&quot;] (close)</text>
</g>
<!-- [root] provider[&quot;registry.terraform.io/hashicorp/tls&quot;] (close)&#45;&gt;[root] tls_private_key.application (expand) -->
<g id="edge57" class="edge">
<title>[root] provider[&quot;registry.terraform.io/hashicorp/tls&quot;] (close)&#45;&gt;[root] tls_private_key.application (expand)</title>
<path fill="none" stroke="#000000" d="M3083.7462,-148.3727C2880.6277,-133.6302 2563.2467,-110.5945 2394.3251,-98.3341"/>
<polygon fill="#000000" stroke="#000000" points="2394.3879,-94.8295 2384.1607,-97.5963 2393.8811,-101.8112 2394.3879,-94.8295"/>
</g>
<!-- [root] provider[&quot;registry.terraform.io/hashicorp/tls&quot;] (close)&#45;&gt;[root] tls_private_key.bastion (expand) -->
<g id="edge58" class="edge">
<title>[root] provider[&quot;registry.terraform.io/hashicorp/tls&quot;] (close)&#45;&gt;[root] tls_private_key.bastion (expand)</title>
<path fill="none" stroke="#000000" d="M3175.0906,-145.0282C3111.5368,-133.8402 3028.4374,-119.2115 2963.895,-107.8495"/>
<polygon fill="#000000" stroke="#000000" points="2964.1569,-104.3419 2953.7015,-106.055 2962.9433,-111.2358 2964.1569,-104.3419"/>
</g>
<!-- [root] root -->
<g id="node32" class="node">
<title>[root] root</title>
<ellipse fill="none" stroke="#000000" cx="1947.5" cy="-378" rx="58.4896" ry="18"/>
<text text-anchor="middle" x="1947.5" y="-374.3" font-family="Times,serif" font-size="14.00" fill="#000000">[root] root</text>
</g>
<!-- [root] root&#45;&gt;[root] meta.count&#45;boundary (EachMode fixup) -->
<g id="edge59" class="edge">
<title>[root] root&#45;&gt;[root] meta.count&#45;boundary (EachMode fixup)</title>
<path fill="none" stroke="#000000" d="M1896.1764,-369.2434C1830.6765,-358.068 1715.7386,-338.4578 1631.1665,-324.0284"/>
<polygon fill="#000000" stroke="#000000" points="1631.7149,-320.5715 1621.2686,-322.3397 1630.5375,-327.4718 1631.7149,-320.5715"/>
</g>
<!-- [root] root&#45;&gt;[root] provider[&quot;registry.terraform.io/hashicorp/aws&quot;] (close) -->
<g id="edge60" class="edge">
<title>[root] root&#45;&gt;[root] provider[&quot;registry.terraform.io/hashicorp/aws&quot;] (close)</title>
<path fill="none" stroke="#000000" d="M1890.4417,-373.7117C1754.6661,-363.5073 1407.1861,-337.3919 1185.5946,-320.7378"/>
<polygon fill="#000000" stroke="#000000" points="1185.7021,-317.2361 1175.4679,-319.9767 1185.1774,-324.2164 1185.7021,-317.2361"/>
</g>
<!-- [root] root&#45;&gt;[root] provider[&quot;registry.terraform.io/hashicorp/local&quot;] (close) -->
<g id="edge61" class="edge">
<title>[root] root&#45;&gt;[root] provider[&quot;registry.terraform.io/hashicorp/local&quot;] (close)</title>
<path fill="none" stroke="#000000" d="M1992.976,-366.5914C2036.3348,-355.7139 2102.5643,-339.0989 2154.7104,-326.0169"/>
<polygon fill="#000000" stroke="#000000" points="2155.7596,-329.3622 2164.6073,-323.5341 2154.0562,-322.5726 2155.7596,-329.3622"/>
</g>
<!-- [root] root&#45;&gt;[root] provider[&quot;registry.terraform.io/hashicorp/tls&quot;] (close) -->
<g id="edge62" class="edge">
<title>[root] root&#45;&gt;[root] provider[&quot;registry.terraform.io/hashicorp/tls&quot;] (close)</title>
<path fill="none" stroke="#000000" d="M2005.559,-375.1887C2112.2211,-369.4775 2346.3312,-354.3997 2541.5,-324 2782.7803,-286.4179 3063.6035,-216.6035 3195.5983,-182.2128"/>
<polygon fill="#000000" stroke="#000000" points="3196.8172,-185.5119 3205.6081,-179.5983 3195.0482,-178.7391 3196.8172,-185.5119"/>
</g>
</g>
</svg>
